IKResults																																									
version=1																																									
nRows=8																																									
nColumns=42																																									
inDegrees=yes																																									
																																									
"Units are S.I. units (second, meters, Newtons, ...)"																																									
"If the header above contains a line with 'inDegrees', this indicates whether rotational values are in degrees (yes) or radians (no)."																																									
																																									
endheader																																									
time	pelvis_tilt	pelvis_list	pelvis_rotation	pelvis_tx	pelvis_ty	pelvis_tz	hip_flexion_r	hip_adduction_r	hip_rotation_r	knee_angle_r	knee_adduction_r	knee_angle_r_beta	ankle_angle_r	subtalar_angle_r	mtp_angle_r	hip_flexion_l	hip_adduction_l	hip_rotation_l	knee_angle_l	knee_adduction_l	knee_angle_l_beta	ankle_angle_l	subtalar_angle_l	mtp_angle_l	lumbar_extension	lumbar_bending	lumbar_rotation	arm_flex_r	arm_add_r	arm_rot_r	elbow_flex_r	pro_sup_r	wrist_flex_r	wrist_dev_r	arm_flex_l	arm_add_l	arm_rot_l	elbow_flex_l	pro_sup_l	wrist_flex_l	wrist_dev_l
45	-3.789745417	4.47354365	2.707170844	1.069973004	0.954383869	0.42382898	219.4158555	191.5533016	-169.1349833	49.35066641	2.2228717	0.861331616	2.56955758	-26.61877405	5.598035569	183.512234	-184.3035425	176.0911159	9.662820234	5.38393913	0.168648029	10.29583512	-14.18440941	-3.42762694	-8.221101885	-3.017112276	-1.628892209	2.413788315	-10.95084896	-10.80040553	22.95895681	90.00000001	0	0	21.38309102	-18.57217242	3.729177157	58.12658942	90.00000001	0	0
45.01	-3.918464011	4.614800041	2.588251441	1.069725829	0.953454486	0.424114246	219.4532613	191.8622448	-168.8985599	45.99217956	2.2228717	0.802714963	2.683335783	-26.27222642	4.993686605	182.9162435	-184.4351065	176.0914125	9.302428383	5.38393913	0.162358005	10.61061614	-14.04417174	-3.544525364	-8.154614037	-3.039762627	-1.526954283	1.698237005	-10.99874773	-11.52377253	19.94331389	90.00000001	0	0	22.1806307	-18.76512552	3.047196478	60.72496647	90.00000001	0	0
45.02	-4.073940981	4.761446093	2.492818496	1.069594487	0.952398721	0.424522829	219.4170967	192.1780233	-168.7396199	42.6505126	2.2228717	0.744391873	2.782308772	-25.74238402	4.211641494	182.3590768	-184.5619524	176.0930798	8.978958387	5.38393913	0.156712388	10.93774266	-13.87134694	-3.667468677	-8.05130165	-3.091006138	-1.422898633	0.821994215	-11.04156366	-12.2136094	17.43748824	90.00000001	0	0	22.93887162	-18.91826014	2.340684073	63.31993195	90.00000001	0	0
45.03	-4.248727226	4.911103691	2.424051391	1.069609837	0.951225916	0.425063316	219.3048895	192.4939795	-168.6749062	39.39148667	2.2228717	0.68751114	2.852641567	-25.08849641	3.305082422	181.8297305	-184.6795978	176.0942961	8.691590839	5.38393913	0.151696878	11.28219598	-13.6568565	-3.788778109	-7.912908252	-3.170577039	-1.321983912	-0.223265084	-11.0727066	-12.82968479	15.45117217	90.00000001	0	0	23.65629211	-19.03478757	1.625395701	65.89672243	90.00000001	0	0
45.04	-4.434676553	5.060734429	2.383621263	1.069804411	0.94994195	0.425744196	219.1150384	192.8012863	-168.7157854	36.28206686	2.2228717	0.633241527	2.877019253	-24.38457112	2.339370946	181.3171047	-184.7831348	176.0923731	8.440888742	5.38393913	0.147321301	11.65151147	-13.39304495	-3.898012569	-7.741558893	-3.276784732	-1.228457995	-1.43884424	-11.08710826	-13.33268619	13.97540193	90.00000001	0	0	24.32986379	-19.11894148	0.915015493	68.44244775	90.00000001	0	0
45.05	-4.623543357	5.206592881	2.371347005	1.070209088	0.948549641	0.426573936	218.8480327	193.088953	-168.8661641	33.38720374	2.2228717	0.582716634	2.835799801	-23.71173863	1.383170197	180.8111946	-184.8672254	176.0837029	8.229347199	5.38393913	0.143629205	12.05547169	-13.07461876	-3.982379201	-7.539779523	-3.406333836	-1.145158485	-2.818216002	-11.08144473	-13.68919451	12.98317176	90.00000001	0	0	24.95528717	-19.17557891	0.220472374	70.9462465	90.00000001	0	0
45.06	-4.807592895	5.344128712	2.385105471	1.070849385	0.947049975	0.427560907	218.5075942	193.3440751	-169.1212023	30.76654234	2.2228717	0.536977465	2.708798454	-23.14969065	0.499122306	180.3043204	-184.9259909	176.0639256	8.061922171	5.38393913	0.140707086	12.50531077	-12.69957357	-4.027770978	-7.31058658	-3.554128991	-1.073353416	-4.346425517	-11.05416695	-13.87649795	12.43100918	90.00000001	0	0	25.5272902	-19.2096988	-0.450593746	73.39930373	90.00000001	0	0
45.07	-4.980137785	5.467862745	2.421016693	1.071741824	0.945444131	0.428713106	218.1015384	193.5523395	-169.4670819	28.47133521	2.2228717	0.496918543	2.47781722	-22.76823202	-0.264277354	179.7922547	-184.9528167	176.0283482	7.946501148	5.38393913	0.138692609	13.01238782	-12.27005292	-4.02049505	-7.05765506	-3.713101231	-1.012870065	-5.999801777	-11.0053518	-13.88642414	12.26138651	90.00000001	0	0	26.03991572	-19.22593436	-1.09419134	75.79476736	90.00000001	0	0
